<svg xmlns="http://www.w3.org/2000/svg" viewBox="0 0 256 256" role="img">

<defs>
  <linearGradient id="bg" x1="0" y1="0" x2="1" y2="1">
    <stop offset="0%" stop-color="#d84cf2"/>
    <stop offset="52%" stop-color="#9148ee"/>
    <stop offset="100%" stop-color="#3d7ff3"/>
  </linearGradient>
  <linearGradient id="blue" x1="0" y1="0" x2="1" y2="1">
    <stop offset="0%" stop-color="#56d8ed"/>
    <stop offset="100%" stop-color="#168de7"/>
  </linearGradient>
  <filter id="shadow" x="-30%" y="-30%" width="160%" height="160%">
    <feDropShadow dx="0" dy="7" stdDeviation="8" flood-color="#6f42d8" flood-opacity=".30"/>
  </filter>
  <filter id="soft" x="-30%" y="-30%" width="160%" height="160%">
    <feGaussianBlur stdDeviation="2.5"/>
  </filter>
</defs>

<rect x="24" y="24" width="208" height="208" rx="42" fill="#5f36d9" opacity=".18" filter="url(#soft)"/>
<rect x="25" y="22" width="206" height="206" rx="42" fill="url(#blue)" filter="url(#shadow)"/>

<rect x="55" y="74" width="146" height="110" rx="12" fill="#fff"/>
<circle cx="94" cy="108" r="12" fill="#b86ff0"/>
<path d="M67 164l37-38 25 23 21-20 31 35" fill="none" stroke="#6d5bf0" stroke-width="8" stroke-linecap="round" stroke-linejoin="round"/>
<path d="M42 72l-19-19M23 53h16M23 53v16M214 72l19-19m0 0h-16m16 0v16M42 184l-19 19m0 0h16m-16 0v-16M214 184l19 19m0 0h-16m16 0v-16" fill="none" stroke="#fff" stroke-width="8" stroke-linecap="round"/>

</svg>