<svg xmlns="http://www.w3.org/2000/svg" viewBox="0 0 256 256" width="100%" height="100%">
  <defs>
    <linearGradient id="bluePrime" x1="0%" y1="0%" x2="100%" y2="100%">
      <stop offset="0%" stop-color="#56D8ED"/>
      <stop offset="100%" stop-color="#168DE7"/>
    </linearGradient>
    <linearGradient id="rimSpec" x1="0%" y1="0%" x2="0%" y2="100%">
      <stop offset="0%" stop-color="#FFFFFF" stop-opacity="0.5"/>
      <stop offset="100%" stop-color="#FFFFFF" stop-opacity="0"/>
    </linearGradient>
    <linearGradient id="glassFill" x1="0%" y1="0%" x2="0%" y2="100%">
      <stop offset="0%" stop-color="#FFFFFF" stop-opacity="0.18"/>
      <stop offset="100%" stop-color="#FFFFFF" stop-opacity="0.08"/>
    </linearGradient>
    <filter id="complexShadow" x="-25%" y="-25%" width="150%" height="150%">
      <feDropShadow dx="0" dy="18" stdDeviation="16" flood-color="#0E5A9B" flood-opacity="0.3"/>
    </filter>
    <filter id="symbolNeonBlue" x="-30%" y="-30%" width="160%" height="160%">
      <feDropShadow dx="0" dy="0" stdDeviation="5" flood-color="#8CEAFE" flood-opacity="0.6"/>
    </filter>
  </defs>

  <rect x="24" y="24" width="208" height="208" rx="44" fill="url(#bluePrime)" filter="url(#complexShadow)"/>
  <rect x="24" y="24" width="208" height="208" rx="44" fill="none" stroke="url(#rimSpec)" stroke-width="2.5"/>
  <rect x="80" y="80" width="112" height="112" rx="16" fill="url(#glassFill)" filter="blur(3.5px)"/>

  <g filter="url(#symbolNeonBlue)" stroke-linecap="round" stroke-linejoin="round">
    <!-- PDF Doc Left -->
    <path d="M58 82 H96 L112 98 V166 C112 171 107.5 175 102 175 H58 C52.5 175 48 171 48 166 V91 C48 86 52.5 82 58 82 Z" fill="none" stroke="#FFFFFF" stroke-width="7"/>
    <path d="M96 82 V98 H112" fill="none" stroke="#FFFFFF" stroke-width="7"/>

    <!-- Arrow Center -->
    <path d="M120 128 H138" stroke="#FFFFFF" stroke-width="8"/>
    <path d="M132 120 L140 128 L132 136" fill="none" stroke="#FFFFFF" stroke-width="8"/>

    <!-- Image Right -->
    <rect x="142" y="82" width="62" height="80" rx="10" fill="none" stroke="#FFFFFF" stroke-width="7"/>
    <circle cx="162" cy="106" r="6" fill="#FFFFFF"/>
    <path d="M152 148 L166 128 L176 138 L184 128 L190 148 Z" fill="#FFFFFF"/>
  </g>
</svg>
